<svg width="249" height="823" viewBox="0 0 249 823" fill="none" xmlns="http://www.w3.org/2000/svg">
<path d="M3.77615 734.963L3.48404 822.227L205.083 822.901L205.239 776.246L149.655 776.06L149.791 735.452C149.972 681.596 122.149 647.807 77.2208 647.656C32.0051 647.505 3.95644 681.107 3.77615 734.963ZM111.767 737.917L111.64 775.932L41.656 775.698L41.7833 737.682C41.8787 709.17 54.8869 694.814 77.0627 694.888C98.9506 694.961 111.862 709.405 111.767 737.917Z" fill="url(#paint0_linear_602_511)" fill-opacity="0.5"/>
<path d="M0.925649 554.08C0.806105 589.791 13.3797 619.21 36.6439 638.296L64.3911 608.724C48.5984 594.559 40.5923 577.252 40.6617 556.517C40.7581 527.717 58.6863 506.177 86.3563 499.645L86.0845 580.861L121.796 580.98L122.07 499.189C150.85 505.333 169.784 527.285 169.685 556.948C169.616 577.684 161.494 594.937 145.607 608.996L173.155 638.753C196.547 619.823 209.317 590.489 209.436 554.778C209.639 494.298 166.299 450.089 105.531 449.885C44.7634 449.682 1.1281 493.6 0.925649 554.08Z" fill="url(#paint1_linear_602_511)" fill-opacity="0.5"/>
<path d="M169.02 239.472L5.43663 238.924L4.91797 393.867L67.9819 396.382C124.423 398.587 167.6 405.356 168.377 431.567L168.35 439.631L248.124 440.186L248.269 396.986L206.509 396.846L206.985 254.575L248.745 254.715L248.89 211.515L169.114 211.248L169.02 239.472ZM72.4397 355.213L43.0668 354.251L43.2982 285.131L168.865 285.551L168.564 375.695C152.194 361.816 115.346 357.085 72.4397 355.213Z" fill="url(#paint2_linear_602_511)" fill-opacity="0.5"/>
<path d="M211.01 84.6516C211.128 49.5158 198.553 20.3856 175.289 1.29961L147.541 31.1589C163.336 44.7478 171.343 61.7667 171.275 81.9266C171.149 119.654 144.563 146.35 106.548 146.222C68.5317 146.095 42.1255 119.223 42.2518 81.4947C42.3193 61.3348 50.4402 44.3699 66.0374 30.886L38.4898 0.841675C15.3863 19.7724 2.617 48.8179 2.50035 83.6657C2.29018 146.449 45.6218 193.251 106.389 193.454C167.157 193.657 210.801 147.147 211.01 84.6516Z" fill="url(#paint3_linear_602_511)" fill-opacity="0.5"/>
<defs>
<linearGradient id="paint0_linear_602_511" x1="-0.546752" y1="413.132" x2="206.452" y2="413.825" gradientUnits="userSpaceOnUse">
<stop stop-color="#B7ADA3"/>
<stop offset="1" stop-color="white" stop-opacity="0"/>
</linearGradient>
<linearGradient id="paint1_linear_602_511" x1="-0.546752" y1="413.132" x2="206.452" y2="413.825" gradientUnits="userSpaceOnUse">
<stop stop-color="#B7ADA3"/>
<stop offset="1" stop-color="white" stop-opacity="0"/>
</linearGradient>
<linearGradient id="paint2_linear_602_511" x1="-0.546752" y1="413.132" x2="206.452" y2="413.825" gradientUnits="userSpaceOnUse">
<stop stop-color="#B7ADA3"/>
<stop offset="1" stop-color="white" stop-opacity="0"/>
</linearGradient>
<linearGradient id="paint3_linear_602_511" x1="-0.546752" y1="413.132" x2="206.452" y2="413.825" gradientUnits="userSpaceOnUse">
<stop stop-color="#B7ADA3"/>
<stop offset="1" stop-color="white" stop-opacity="0"/>
</linearGradient>
</defs>
</svg>
