<svg width="106" height="773" viewBox="0 0 106 773" fill="none" xmlns="http://www.w3.org/2000/svg">
<path d="M104.929 717.87C104.987 700.302 98.7002 685.737 87.0681 676.194L73.194 691.124C81.0913 697.918 85.0948 706.428 85.0611 716.508C84.998 735.372 71.7052 748.719 52.6973 748.656C33.6894 748.592 20.4863 735.156 20.5495 716.292C20.5832 706.212 24.6436 697.729 32.4422 690.987L18.6684 675.965C7.11669 685.431 0.732047 699.953 0.67372 717.377C0.568637 748.769 22.2344 772.17 52.6183 772.271C83.0021 772.373 104.824 749.118 104.929 717.87Z" fill="url(#paint0_linear_602_508)" fill-opacity="0.5"/>
<path d="M2.59143 660.707L103.391 661.044L103.468 637.861L21.6769 637.587L21.8293 592.083L103.621 592.357L103.698 569.173L2.89897 568.836L2.59143 660.707Z" fill="url(#paint1_linear_602_508)" fill-opacity="0.5"/>
<path d="M103.782 544.186L103.856 522.154L38.4972 473.839L104.017 474.058L104.094 451.018L3.29449 450.681L3.22122 472.569L68.7239 520.884L3.06022 520.664L2.98261 543.848L103.782 544.186Z" fill="url(#paint2_linear_602_508)" fill-opacity="0.5"/>
<path d="M104.396 360.689L104.485 334.193L52.2435 368.003L3.68218 334.864L3.59975 359.488L44.2628 386.12L44.2069 402.824L3.45514 402.688L3.37754 425.871L104.177 426.209L104.255 403.025L63.6468 402.889L63.7008 386.761L104.396 360.689Z" fill="url(#paint3_linear_602_508)" fill-opacity="0.5"/>
<path d="M85.8793 300.019L62.5514 299.94L62.7081 253.141L44.5642 253.08L44.4075 299.88L22.5196 299.806L22.697 246.815L3.97713 246.752L3.72214 322.928L104.522 323.265L104.783 245.218L86.0629 245.155L85.8793 300.019Z" fill="url(#paint4_linear_602_508)" fill-opacity="0.5"/>
<path d="M4.19253 182.406L4.04647 226.038L104.846 226.375L104.924 203.047L77.1322 202.954L77.2001 182.65C77.2903 155.722 63.3787 138.828 40.9149 138.753C18.307 138.677 4.28267 155.478 4.19253 182.406ZM58.1879 183.883L58.1243 202.891L23.1325 202.773L23.1961 183.765C23.2438 169.51 29.7479 162.331 40.8358 162.368C51.7798 162.405 58.2356 169.627 58.1879 183.883Z" fill="url(#paint5_linear_602_508)" fill-opacity="0.5"/>
<path d="M37.6738 74.5364L37.588 100.168L4.46819 100.057L4.39058 123.241L105.19 123.579L105.342 78.075C105.429 52.1551 93.5292 36.5632 70.3454 36.4856C48.6015 36.4128 37.7553 50.2006 37.6738 74.5364ZM105.524 23.7873L105.602 0.603415L4.80224 0.265991L4.72463 23.4499L105.524 23.7873ZM88.0581 79.3131L87.9877 100.337L54.8679 100.226L54.9383 79.2023C54.9788 67.1063 59.6109 59.9218 70.6988 59.9589C82.0747 59.997 88.0981 67.3612 88.0581 79.3131Z" fill="url(#paint6_linear_602_508)" fill-opacity="0.5"/>
<defs>
<linearGradient id="paint0_linear_602_508" x1="-50.3521" y1="285.269" x2="156.647" y2="285.962" gradientUnits="userSpaceOnUse">
<stop stop-color="#B7ADA3"/>
<stop offset="1" stop-color="white" stop-opacity="0"/>
</linearGradient>
<linearGradient id="paint1_linear_602_508" x1="-50.3521" y1="285.269" x2="156.647" y2="285.962" gradientUnits="userSpaceOnUse">
<stop stop-color="#B7ADA3"/>
<stop offset="1" stop-color="white" stop-opacity="0"/>
</linearGradient>
<linearGradient id="paint2_linear_602_508" x1="-50.3521" y1="285.269" x2="156.647" y2="285.962" gradientUnits="userSpaceOnUse">
<stop stop-color="#B7ADA3"/>
<stop offset="1" stop-color="white" stop-opacity="0"/>
</linearGradient>
<linearGradient id="paint3_linear_602_508" x1="-50.3521" y1="285.269" x2="156.647" y2="285.962" gradientUnits="userSpaceOnUse">
<stop stop-color="#B7ADA3"/>
<stop offset="1" stop-color="white" stop-opacity="0"/>
</linearGradient>
<linearGradient id="paint4_linear_602_508" x1="-50.3521" y1="285.269" x2="156.647" y2="285.962" gradientUnits="userSpaceOnUse">
<stop stop-color="#B7ADA3"/>
<stop offset="1" stop-color="white" stop-opacity="0"/>
</linearGradient>
<linearGradient id="paint5_linear_602_508" x1="-50.3521" y1="285.269" x2="156.647" y2="285.962" gradientUnits="userSpaceOnUse">
<stop stop-color="#B7ADA3"/>
<stop offset="1" stop-color="white" stop-opacity="0"/>
</linearGradient>
<linearGradient id="paint6_linear_602_508" x1="-50.3521" y1="285.269" x2="156.647" y2="285.962" gradientUnits="userSpaceOnUse">
<stop stop-color="#B7ADA3"/>
<stop offset="1" stop-color="white" stop-opacity="0"/>
</linearGradient>
</defs>
</svg>
